name rise36.2859peak64.2979fall75.1499.mot
datacolumns 19
datarows 12
range 23.02824200000000 23.04659200000000
endheader
time	ground_force1_vx	ground_force1_vy	ground_force1_vz	ground_force1_px	ground_force1_py	ground_force1_pz	ground_force2_vx	ground_force2_vy	ground_force2_vz	ground_force2_px	ground_force2_py	ground_force2_pz	ground_torque1_x	ground_torque1_y	ground_torque1_z	ground_torque2_x	ground_torque2_y	ground_torque2_z	
23.02824200000000	-0.00358200000000	688.73536000000001	53.79653200000000	0.24537200000000	0.00000000000000	0.15155700000000	0.00000000000000	0.00000000000000	0.00000000000000	0.00000000000000	0.00000000000000	0.00000000000000	0.00000000000000	25.62417500000000	0.00000000000000	0.00000000000000	0.00000000000000	0.00000000000000	
23.02991700000000	-0.47379500000000	689.54448400000001	53.82974200000000	0.24422000000000	0.00000000000000	0.15162900000000	0.00000000000000	0.00000000000000	0.00000000000000	0.00000000000000	0.00000000000000	0.00000000000000	0.00000000000000	25.68042900000000	0.00000000000000	0.00000000000000	0.00000000000000	0.00000000000000	
23.03159200000000	-0.95240600000000	690.40363800000000	53.86810800000000	0.24306000000000	0.00000000000000	0.15170100000000	0.00000000000000	0.00000000000000	0.00000000000000	0.00000000000000	0.00000000000000	0.00000000000000	0.00000000000000	25.74244400000000	0.00000000000000	0.00000000000000	0.00000000000000	0.00000000000000	
23.03324700000000	-1.43963100000000	691.31170599999996	53.91141900000000	0.24189200000000	0.00000000000000	0.15177400000000	0.00000000000000	0.00000000000000	0.00000000000000	0.00000000000000	0.00000000000000	0.00000000000000	0.00000000000000	25.81016400000000	0.00000000000000	0.00000000000000	0.00000000000000	0.00000000000000	
23.03491600000000	-1.93565800000000	692.26754600000004	53.95947000000000	0.24071700000000	0.00000000000000	0.15184600000000	0.00000000000000	0.00000000000000	0.00000000000000	0.00000000000000	0.00000000000000	0.00000000000000	0.00000000000000	25.88353300000000	0.00000000000000	0.00000000000000	0.00000000000000	0.00000000000000	
23.03659500000000	-2.44064600000000	693.26999599999999	54.01206700000000	0.23953600000000	0.00000000000000	0.15191900000000	0.00000000000000	0.00000000000000	0.00000000000000	0.00000000000000	0.00000000000000	0.00000000000000	0.00000000000000	25.96249100000000	0.00000000000000	0.00000000000000	0.00000000000000	0.00000000000000	
23.03824800000000	-2.95472500000000	694.31787699999995	54.06902300000000	0.23835000000000	0.00000000000000	0.15199200000000	0.00000000000000	0.00000000000000	0.00000000000000	0.00000000000000	0.00000000000000	0.00000000000000	0.00000000000000	26.04697700000000	0.00000000000000	0.00000000000000	0.00000000000000	0.00000000000000	
23.03991300000000	-3.47799600000000	695.40999299999999	54.13016400000000	0.23716100000000	0.00000000000000	0.15206400000000	0.00000000000000	0.00000000000000	0.00000000000000	0.00000000000000	0.00000000000000	0.00000000000000	0.00000000000000	26.13693100000000	0.00000000000000	0.00000000000000	0.00000000000000	0.00000000000000	
23.04158800000000	-4.01052800000000	696.54513499999996	54.19532300000000	0.23597000000000	0.00000000000000	0.15213600000000	0.00000000000000	0.00000000000000	0.00000000000000	0.00000000000000	0.00000000000000	0.00000000000000	0.00000000000000	26.23228600000000	0.00000000000000	0.00000000000000	0.00000000000000	0.00000000000000	
23.04324400000000	-4.55236200000000	697.72208100000000	54.26434600000000	0.23477800000000	0.00000000000000	0.15220800000000	0.00000000000000	0.00000000000000	0.00000000000000	0.00000000000000	0.00000000000000	0.00000000000000	0.00000000000000	26.33297500000000	0.00000000000000	0.00000000000000	0.00000000000000	0.00000000000000	
23.04491200000000	-5.10350800000000	698.93960500000003	54.33708900000000	0.23358500000000	0.00000000000000	0.15227900000000	0.00000000000000	0.00000000000000	0.00000000000000	0.00000000000000	0.00000000000000	0.00000000000000	0.00000000000000	26.43892900000000	0.00000000000000	0.00000000000000	0.00000000000000	0.00000000000000	
23.04659200000000	-5.66394300000000	700.19647099999997	54.41342000000000	0.23239400000000	0.00000000000000	0.15235000000000	0.00000000000000	0.00000000000000	0.00000000000000	0.00000000000000	0.00000000000000	0.00000000000000	0.00000000000000	26.55007300000000	0.00000000000000	0.00000000000000	0.00000000000000	0.00000000000000	
